<?xml version="1.0" encoding="utf-8"?>
<!-- Generator: Adobe Illustrator 27.7.0, SVG Export Plug-In . SVG Version: 6.00 Build 0)  -->
<svg version="1.1" id="_x30_" xmlns="http://www.w3.org/2000/svg" xmlns:xlink="http://www.w3.org/1999/xlink" x="0px" y="0px"
	 viewBox="0 0 404.1 235.21" style="enable-background:new 0 0 404.1 235.21;" xml:space="preserve">
<style type="text/css">
	.st0{fill:none;stroke:#000000;stroke-width:0.7087;stroke-linecap:round;stroke-linejoin:round;stroke-miterlimit:10;}
</style>
<g id="LINE">
	<line class="st0" x1="36.85" y1="0" x2="367.24" y2="0"/>
</g>
<g id="ARC">
	<path class="st0" d="M36.85,0C16.5,0,0,16.5,0,36.85S16.5,73.7,36.85,73.7"/>
</g>
<g id="LINE_00000026841926643020260910000008126425282983689913_">
	<line class="st0" x1="36.85" y1="73.7" x2="67.43" y2="73.7"/>
</g>
<g id="ARC_00000158719567717642779650000017729573886311971723_">
	<path class="st0" d="M110.14,99.93C101.98,83.84,85.47,73.7,67.43,73.7"/>
</g>
<g id="LINE_00000026881235980742377870000000071321668147445122_">
	<line class="st0" x1="110.14" y1="99.93" x2="111.85" y2="103.31"/>
</g>
<g id="ARC_00000183965750889444638740000014052106193895770254_">
	<path class="st0" d="M106.95,154.32c11.36-14.63,13.27-34.5,4.89-51.02"/>
</g>
<g id="LINE_00000183233194130366487770000009034449826797610658_">
	<line class="st0" x1="89.89" y1="176.29" x2="106.95" y2="154.32"/>
</g>
<g id="ARC_00000068639414789495541740000014531765621205737357_">
	<path class="st0" d="M89.89,176.29c-12.48,16.07-9.58,39.22,6.5,51.71c8.19,6.36,18.67,8.98,28.89,7.21"/>
</g>
<g id="LINE_00000067209588138244922300000005855671654567342738_">
	<line class="st0" x1="309.74" y1="203.31" x2="125.27" y2="235.21"/>
</g>
<g id="ARC_00000009591618716369784900000015778333591394855095_">
	<path class="st0" d="M309.74,203.31c11.64-2.01,21.61-9.49,26.81-20.09"/>
</g>
<g id="LINE_00000083807827091180596730000004530161823782579134_">
	<line class="st0" x1="336.55" y1="183.21" x2="400.33" y2="53.07"/>
</g>
<g id="ARC_00000062194378888859910930000000644378422386589853_">
	<path class="st0" d="M400.33,53.07c8.96-18.28,1.4-40.35-16.87-49.31C378.41,1.29,372.86,0,367.24,0"/>
</g>
<g id="CIRCLE">
	<path class="st0" d="M252.23,79.66c0-6.26-5.08-11.34-11.34-11.34c-6.26,0-11.34,5.08-11.34,11.34c0,6.26,5.08,11.34,11.34,11.34
		C247.16,91,252.23,85.93,252.23,79.66z"/>
</g>
<g id="CIRCLE_00000054971441862315180850000005262010315092618428_">
	<path class="st0" d="M314.8,166.99c0-6.26-5.08-11.34-11.34-11.34c-6.26,0-11.34,5.08-11.34,11.34s5.08,11.34,11.34,11.34
		C309.72,178.33,314.8,173.26,314.8,166.99z"/>
</g>
<g id="CIRCLE_00000139280332542949374620000008071550992192119473_">
	<circle class="st0" cx="118.99" cy="198.9" r="11.34"/>
</g>
<g id="CIRCLE_00000134966231013890136860000014652819917528838821_">
	<circle class="st0" cx="36.85" cy="36.85" r="11.34"/>
</g>
<g id="CIRCLE_00000078044783841238421820000014893441634900513426_">
	<circle class="st0" cx="367.24" cy="36.85" r="11.34"/>
</g>
</svg>
