<?xml version="1.0" encoding="utf-8"?>
<!-- Generator: Adobe Illustrator 27.5.0, SVG Export Plug-In . SVG Version: 6.00 Build 0)  -->
<svg version="1.1" id="_x30_" xmlns="http://www.w3.org/2000/svg" xmlns:xlink="http://www.w3.org/1999/xlink" x="0px" y="0px"
	 viewBox="0 0 342.85 235.75" style="enable-background:new 0 0 342.85 235.75;" xml:space="preserve">
<style type="text/css">
	.st0{fill:none;stroke:#000000;stroke-width:0.7087;stroke-linecap:round;stroke-linejoin:round;stroke-miterlimit:10;}
</style>
<g id="CIRCLE">
	<circle class="st0" cx="120" cy="198.9" r="11.34"/>
</g>
<g id="CIRCLE_00000148636188261847099370000007176273587980355003_">
	<circle class="st0" cx="241.9" cy="79.66" r="11.34"/>
</g>
<g id="ARC_00000155836839418857025230000002115663772436828551_">
	<path class="st0" d="M309.58,87.13c21.64,30.2,33.27,66.42,33.27,103.58c0,0,0,7.72,0,7.72c0,15.15-11.91,27.62-27.04,28.32
		c0,0-194.12,8.97-194.12,8.97c-8.76,0.4-17.38-2.33-24.31-7.71c-16.07-12.48-18.98-35.64-6.5-51.71c0,0,17.07-21.97,17.07-21.97
		c11.36-14.63,13.27-34.5,4.89-51.02c0,0-1.71-3.37-1.71-3.37C102.99,83.84,86.48,73.7,68.44,73.7c0,0-30.58,0-30.58,0
		c-20.35,0-36.85-16.5-36.85-36.85S17.51,0,37.86,0c0,0,117.93,0,117.93,0c57.35,0,111.18,27.65,144.58,74.28
		C300.37,74.28,309.58,87.13,309.58,87.13z"/>
</g>
<g id="CIRCLE_00000124879727479329215810000007430815645125323400_">
	<circle class="st0" cx="304.47" cy="166.99" r="11.34"/>
</g>
<g id="CIRCLE_00000114752969025482917150000005641970909680263814_">
	<circle class="st0" cx="37.86" cy="36.85" r="11.34"/>
</g>
</svg>
