<?xml version="1.0" encoding="UTF-8"?>
<svg id="_0" data-name="0" xmlns="http://www.w3.org/2000/svg" version="1.1" viewBox="0 0 404.8 548.63">
  <defs>
    <style>
      .cls-1 {
        fill: none;
        stroke: #000;
        stroke-linecap: round;
        stroke-linejoin: round;
        stroke-width: .71px;
      }
    </style>
  </defs>
  <g id="CIRCLE">
    <circle class="cls-1" cx="367.59" cy="349.38" r="11.34"/>
  </g>
  <g id="CIRCLE-2" data-name="CIRCLE">
    <circle class="cls-1" cx="37.2" cy="349.38" r="11.34"/>
  </g>
  <g id="CIRCLE-3" data-name="CIRCLE">
    <circle class="cls-1" cx="119.34" cy="511.43" r="11.34"/>
  </g>
  <g id="CIRCLE-4" data-name="CIRCLE">
    <circle class="cls-1" cx="303.81" cy="479.52" r="11.34"/>
  </g>
  <g id="CIRCLE-5" data-name="CIRCLE">
    <circle class="cls-1" cx="241.25" cy="392.19" r="11.34"/>
  </g>
  <g id="ARC">
    <path class="cls-1" d="M400.68,365.59c3.66-7.46,4.68-15.93,2.92-24.05"/>
  </g>
  <g id="LINE">
    <line class="cls-1" x1="403.6" y1="341.55" x2="338.2" y2="40.81"/>
  </g>
  <g id="ARC-2" data-name="ARC">
    <path class="cls-1" d="M338.2,40.81c-4.33-19.9-19.87-35.44-39.77-39.77"/>
  </g>
  <g id="ARC-3" data-name="ARC">
    <path class="cls-1" d="M298.44,1.04c-16.06-3.49-31.92,6.7-35.41,22.76-.2.9-.35,1.81-.46,2.73"/>
  </g>
  <g id="LINE-2" data-name="LINE">
    <line class="cls-1" x1="262.57" y1="26.53" x2="230.8" y2="287.6"/>
  </g>
  <g id="ARC-4" data-name="ARC">
    <path class="cls-1" d="M202.66,312.53c14.33,0,26.41-10.7,28.14-24.92"/>
  </g>
  <g id="LINE-3" data-name="LINE">
    <line class="cls-1" x1="202.66" y1="312.53" x2="37.2" y2="312.53"/>
  </g>
  <g id="ARC-5" data-name="ARC">
    <path class="cls-1" d="M37.2,312.53c-20.35,0-36.85,16.5-36.85,36.85s16.5,36.85,36.85,36.85"/>
  </g>
  <g id="ARC-6" data-name="ARC">
    <path class="cls-1" d="M90.24,488.82c20.76-29.29,13.84-69.86-15.45-90.62-10.99-7.79-24.12-11.97-37.59-11.97"/>
  </g>
  <g id="ARC-7" data-name="ARC">
    <path class="cls-1" d="M90.24,488.82c-12.48,16.07-9.58,39.22,6.5,51.71,8.19,6.36,18.67,8.98,28.89,7.21"/>
  </g>
  <g id="LINE-4" data-name="LINE">
    <line class="cls-1" x1="310.09" y1="515.83" x2="125.62" y2="547.74"/>
  </g>
  <g id="ARC-8" data-name="ARC">
    <path class="cls-1" d="M310.09,515.83c11.64-2.01,21.61-9.49,26.81-20.09"/>
  </g>
  <g id="LINE-5" data-name="LINE">
    <line class="cls-1" x1="336.9" y1="495.74" x2="400.68" y2="365.59"/>
  </g>
  <g id="ARC-9" data-name="ARC">
    <path class="cls-1" d="M301.13,21.1c-4.98-4.98-13.06-4.98-18.04,0s-4.98,13.06,0,18.04"/>
  </g>
  <g id="LINE-6" data-name="LINE">
    <line class="cls-1" x1="318.14" y1="38.11" x2="301.13" y2="21.1"/>
  </g>
  <g id="ARC-10" data-name="ARC">
    <path class="cls-1" d="M300.1,56.15c4.98,4.98,13.06,4.98,18.04,0s4.98-13.06,0-18.04"/>
  </g>
  <g id="LINE-7" data-name="LINE">
    <line class="cls-1" x1="300.1" y1="56.15" x2="283.09" y2="39.14"/>
  </g>
</svg>