<?xml version="1.0" encoding="utf-8"?>
<!-- Generator: Adobe Illustrator 27.7.0, SVG Export Plug-In . SVG Version: 6.00 Build 0)  -->
<svg version="1.1" id="_x30_" xmlns="http://www.w3.org/2000/svg" xmlns:xlink="http://www.w3.org/1999/xlink" x="0px" y="0px"
	 viewBox="0 0 297.64 1097.19" style="enable-background:new 0 0 297.64 1097.19;" xml:space="preserve">
<style type="text/css">
	.st0{fill:none;stroke:#000000;stroke-width:0.7087;stroke-linecap:round;stroke-linejoin:round;stroke-miterlimit:10;}
</style>
<g id="ARC">
	<path class="st0" d="M173.73,559.29c0-3.91-3.17-7.09-7.09-7.09c-3.91,0-7.09,3.17-7.09,7.09"/>
</g>
<g id="LINE">
	<line class="st0" x1="173.73" y1="559.29" x2="173.73" y2="601.81"/>
</g>
<g id="ARC_00000180367566812532353640000003591175881675874464_">
	<path class="st0" d="M159.56,601.81c0,3.91,3.17,7.09,7.09,7.09c3.91,0,7.09-3.17,7.09-7.09"/>
</g>
<g id="LINE_00000152261991283993766020000013228070176165766799_">
	<line class="st0" x1="159.56" y1="601.81" x2="159.56" y2="559.29"/>
</g>
<g id="ARC_00000076590242911772994140000015741571461232362116_">
	<path class="st0" d="M294.13,76.16C293.91,33.88,259.45-0.22,217.17,0c-36.03,0.19-67.06,25.48-74.51,60.74"/>
</g>
<g id="LINE_00000041260929324601309620000011989643577511593377_">
	<line class="st0" x1="1.84" y1="727.38" x2="142.66" y2="60.74"/>
</g>
<g id="ARC_00000148659433046975746020000014467162341059476394_">
	<path class="st0" d="M1.84,727.38C0.62,733.16,0,739.05,0,744.95"/>
</g>
<g id="LINE_00000176039961442740504510000012611190489175113647_">
	<line class="st0" x1="0" y1="1040.49" x2="0" y2="744.95"/>
</g>
<g id="ARC_00000164504462231387517510000013456425581276892823_">
	<path class="st0" d="M0,1040.49c0,31.31,25.38,56.69,56.69,56.69"/>
</g>
<g id="LINE_00000099651518965141666890000017179212924473344641_">
	<line class="st0" x1="188.14" y1="1097.19" x2="56.69" y2="1097.19"/>
</g>
<g id="ARC_00000183213888413009314860000009568300288230437037_">
	<path class="st0" d="M188.14,1097.19c15.33,0,28.66-10.52,32.23-25.43"/>
</g>
<g id="LINE_00000040576634700928530380000010566395685512150704_">
	<line class="st0" x1="296.71" y1="752.71" x2="220.37" y2="1071.76"/>
</g>
<g id="ARC_00000106145008627257429370000012109074898286365570_">
	<path class="st0" d="M296.71,752.71c0.63-2.65,0.95-5.37,0.93-8.09"/>
</g>
<g id="LINE_00000040563631361012755220000017723774656421700769_">
	<line class="st0" x1="294.13" y1="76.16" x2="297.64" y2="744.61"/>
</g>
<g id="ARC_00000057827241428098176390000004707703648090617020_">
	<path class="st0" d="M142.47,655.35c4.38,3.3,10.6,2.42,13.89-1.96c3.3-4.38,2.42-10.6-1.96-13.89"/>
</g>
<g id="ARC_00000143578543264466887460000002823034107580150684_">
	<path class="st0" d="M142.47,655.35c-13.48-10.15-29.09-17.09-45.65-20.31"/>
</g>
<g id="ARC_00000090987462800017635110000011217776266511697342_">
	<path class="st0" d="M100.6,615.56c-5.38-1.04-10.59,2.47-11.63,7.85c-1.04,5.38,2.47,10.59,7.85,11.63"/>
</g>
<g id="ARC_00000156583062711261502280000011508252609848487059_">
	<path class="st0" d="M154.41,639.5c-15.89-11.96-34.29-20.15-53.81-23.93"/>
</g>
<g id="ARC_00000036230426746182904290000010297029375868415922_">
	<path class="st0" d="M173.73,332.52c0-3.91-3.17-7.09-7.09-7.09c-3.91,0-7.09,3.17-7.09,7.09"/>
</g>
<g id="LINE_00000112620039517585091120000005226424673925292697_">
	<line class="st0" x1="173.73" y1="332.52" x2="173.73" y2="375.04"/>
</g>
<g id="ARC_00000072238714492921129810000004484737498422277280_">
	<path class="st0" d="M159.56,375.04c0,3.91,3.17,7.09,7.09,7.09c3.91,0,7.09-3.17,7.09-7.09"/>
</g>
<g id="LINE_00000130623745787097408840000004263639857769545615_">
	<line class="st0" x1="159.56" y1="375.04" x2="159.56" y2="332.52"/>
</g>
<g id="CIRCLE">
	<circle class="st0" cx="263.62" cy="744.79" r="9.92"/>
</g>
<g id="CIRCLE_00000054243212682384406460000017895275818385233829_">
	<circle class="st0" cx="188.14" cy="1064.05" r="11.34"/>
</g>
<g id="CIRCLE_00000164513033781835497340000001757809549219295417_">
	<circle class="st0" cx="61.5" cy="1070.05" r="9.92"/>
</g>
<g id="CIRCLE_00000007427240001249414590000017518937227859319194_">
	<circle class="st0" cx="75.67" cy="744.06" r="9.92"/>
</g>
<g id="CIRCLE_00000087398862396064151720000005625492612969763750_">
	<circle class="st0" cx="217.57" cy="76.56" r="29.2"/>
</g>
</svg>
