<?xml version="1.0" encoding="utf-8"?>
<!-- Generator: Adobe Illustrator 27.5.0, SVG Export Plug-In . SVG Version: 6.00 Build 0)  -->
<svg version="1.1" id="_x30_" xmlns="http://www.w3.org/2000/svg" xmlns:xlink="http://www.w3.org/1999/xlink" x="0px" y="0px"
	 viewBox="0 0 347.73 1223.28" style="enable-background:new 0 0 347.73 1223.28;" xml:space="preserve">
<style type="text/css">
	.st0{fill:none;stroke:#000000;stroke-width:0.7087;stroke-linecap:round;stroke-linejoin:round;stroke-miterlimit:10;}
</style>
<g id="CIRCLE">
	<circle class="st0" cx="102.25" cy="1183.59" r="11.34"/>
</g>
<g id="CIRCLE_00000106841352518535154970000004208765876277264311_">
	<circle class="st0" cx="278.5" cy="733.46" r="14.17"/>
</g>
<g id="CIRCLE_00000140698238268007179280000012388794757802246834_">
	<circle class="st0" cx="90.55" cy="734.19" r="21.6"/>
</g>
<g id="CIRCLE_00000053523296983662690880000017620924168120956559_">
	<circle class="st0" cx="110.53" cy="881.76" r="8.5"/>
</g>
<g id="ARC_00000179626052964688867710000014846267131872191404_">
	<path class="st0" d="M158.96,713.12c-0.48,3.88,2.29,7.42,6.17,7.9c3.88,0.48,7.42-2.29,7.9-6.17l5.53-45.02
		c0.48-3.88-2.29-7.42-6.17-7.9c-3.88-0.48-7.42,2.29-7.9,6.17L158.96,713.12z"/>
</g>
<g id="ARC_00000179621542945116047620000017546006606208590213_">
	<path class="st0" d="M207.9,430.77c0.48-3.88-2.29-7.42-6.17-7.9s-7.42,2.29-7.9,6.17l-5.53,45.02c-0.48,3.88,2.29,7.42,6.17,7.9
		c3.88,0.48,7.42-2.29,7.9-6.17L207.9,430.77z"/>
</g>
<g id="CIRCLE_00000027592516657925031760000017188536516526461349_">
	<circle class="st0" cx="110.53" cy="796.72" r="8.5"/>
</g>
<g id="LINE_00000154388114867497169030000008816477954915699109_">
	<path class="st0" d="M175.86,22.92l68.55,351.47l80.2,271.43c0.62,2.1,0.99,4.26,1.12,6.44l21.95,391.09
		c0.5,8.94-3.25,17.6-10.13,23.34l-151.1,126.24l-69.61,27.55c-16.93,6.7-36.26,1.02-46.86-13.79l-62.56-87.33
		c-10.66-14.88-9.76-35.13,2.19-49l38.87-45.15l29.3-997.59c0.45-15.3,12.96-27.47,28.26-27.51L147.97,0
		C161.56-0.04,173.26,9.58,175.86,22.92z"/>
</g>
<g id="CIRCLE_00000137819813309299834560000018417585307979095731_">
	<circle class="st0" cx="218.24" cy="796.72" r="8.5"/>
</g>
<g id="CIRCLE_00000182500171158816582010000012039092732332266882_">
	<circle class="st0" cx="218.24" cy="881.76" r="8.5"/>
</g>
<g id="CIRCLE_00000064313479543360314870000015420868892009870993_">
	<circle class="st0" cx="306.85" cy="1016.93" r="14.17"/>
</g>
<g id="CIRCLE_00000057121316125512803840000009699161242175411364_">
	<circle class="st0" cx="136.6" cy="65.96" r="19.84"/>
</g>
<g id="CIRCLE_00000168103283302924538790000015396237402231721357_">
	<circle class="st0" cx="39.69" cy="1096.26" r="11.34"/>
</g>
</svg>
