<?xml version="1.0" encoding="utf-8"?>
<!-- Generator: Adobe Illustrator 27.5.0, SVG Export Plug-In . SVG Version: 6.00 Build 0)  -->
<svg version="1.1" id="_x30_" xmlns="http://www.w3.org/2000/svg" xmlns:xlink="http://www.w3.org/1999/xlink" x="0px" y="0px"
	 viewBox="0 0 328.82 425.2" style="enable-background:new 0 0 328.82 425.2;" xml:space="preserve">
<style type="text/css">
	.st0{fill:none;stroke:#000000;stroke-width:0.7087;stroke-linecap:round;stroke-linejoin:round;stroke-miterlimit:10;}
</style>
<g id="CIRCLE">
	<circle class="st0" cx="218.27" cy="388.81" r="8.5"/>
</g>
<g id="CIRCLE_00000065067456166309587400000000259174433497218969_">
	<circle class="st0" cx="110.55" cy="303.77" r="8.5"/>
</g>
<g id="LINE">
	<line class="st0" x1="28.35" y1="255.12" x2="28.35" y2="113.39"/>
</g>
<g id="ARC">
	<path class="st0" d="M14.17,255.12c0,3.91,3.17,7.09,7.09,7.09s7.09-3.17,7.09-7.09"/>
</g>
<g id="LINE_00000015319449580327084150000015866045547272949412_">
	<line class="st0" x1="14.17" y1="113.39" x2="14.17" y2="255.12"/>
</g>
<g id="ARC_00000062165762632352339960000015296303957466554803_">
	<path class="st0" d="M28.35,113.39c0-3.91-3.17-7.09-7.09-7.09s-7.09,3.17-7.09,7.09"/>
</g>
<g id="CIRCLE_00000068673151677552709240000005579008894244092807_">
	<circle class="st0" cx="62.36" cy="348.66" r="19.84"/>
</g>
<g id="CIRCLE_00000127757112743984584710000007040410844708544666_">
	<circle class="st0" cx="62.36" cy="93.54" r="19.84"/>
</g>
<g id="CIRCLE_00000111908522495655785780000013444670033732957068_">
	<circle class="st0" cx="306.14" cy="289.13" r="11.34"/>
</g>
<g id="CIRCLE_00000035533368495842826550000002284171248932335761_">
	<circle class="st0" cx="22.68" cy="402.52" r="11.34"/>
</g>
<g id="ARC_00000116924950241880015230000015539876862662337431_">
	<path class="st0" d="M0,402.52c0,12.52,10.15,22.68,22.68,22.68"/>
</g>
<g id="LINE_00000062173936589800375300000004654027569205198756_">
	<line class="st0" x1="22.68" y1="425.2" x2="306.14" y2="425.2"/>
</g>
<g id="ARC_00000160180769795160324180000011838535775018262661_">
	<path class="st0" d="M306.14,425.2c12.52,0,22.68-10.15,22.68-22.68"/>
</g>
<g id="LINE_00000070114652975650121650000004845232831602860683_">
	<line class="st0" x1="328.82" y1="402.52" x2="328.82" y2="28.35"/>
</g>
<g id="ARC_00000084530760293178068520000006079763971712197556_">
	<path class="st0" d="M328.82,28.35C328.82,12.69,316.13,0,300.47,0"/>
</g>
<g id="LINE_00000084489310141842964480000012274582153304092298_">
	<line class="st0" x1="300.47" y1="0" x2="28.35" y2="0"/>
</g>
<g id="ARC_00000066508856229263274880000010069040843631873969_">
	<path class="st0" d="M28.35,0C12.69,0,0,12.69,0,28.35"/>
</g>
<g id="LINE_00000009559462483401446470000004641124012473713040_">
	<line class="st0" x1="0" y1="28.35" x2="0" y2="402.52"/>
</g>
<g id="LINE_00000028298648379557033080000006900697194954006944_">
	<line class="st0" x1="218.27" y1="49.61" x2="192.76" y2="49.61"/>
</g>
<g id="ARC_00000062892718491156821260000003808761126801022858_">
	<path class="st0" d="M226.77,58.11c0-4.7-3.81-8.5-8.5-8.5"/>
</g>
<g id="LINE_00000121977845301366662400000010617089078915592598_">
	<line class="st0" x1="226.77" y1="226.77" x2="226.77" y2="58.11"/>
</g>
<g id="ARC_00000080909931496679328260000000772767094071690385_">
	<path class="st0" d="M184.25,269.29c23.48,0,42.52-19.04,42.52-42.52"/>
</g>
<g id="LINE_00000048469660393058852570000013372010895818238116_">
	<line class="st0" x1="144.57" y1="269.29" x2="184.25" y2="269.29"/>
</g>
<g id="ARC_00000101092294651542313950000010045150113281172386_">
	<path class="st0" d="M102.05,226.77c0,23.48,19.04,42.52,42.52,42.52"/>
</g>
<g id="LINE_00000179645481104240187530000002244542236479939768_">
	<line class="st0" x1="102.05" y1="130.39" x2="102.05" y2="226.77"/>
</g>
<g id="ARC_00000181778360508701525430000012679882691590528401_">
	<path class="st0" d="M144.57,87.87c-23.48,0-42.52,19.04-42.52,42.52"/>
</g>
<g id="LINE_00000035524046751754097320000013784030886416306099_">
	<line class="st0" x1="175.75" y1="87.87" x2="144.57" y2="87.87"/>
</g>
<g id="ARC_00000147192085037302122360000003067671443381737637_">
	<path class="st0" d="M175.75,87.87c4.7,0,8.5-3.81,8.5-8.5"/>
</g>
<g id="LINE_00000129916010425921318440000014015440807845885837_">
	<line class="st0" x1="184.25" y1="58.11" x2="184.25" y2="79.37"/>
</g>
<g id="ARC_00000057130583570382752690000006130576470177055885_">
	<path class="st0" d="M192.76,49.61c-4.7,0-8.5,3.81-8.5,8.5"/>
</g>
<g id="CIRCLE_00000043429906548686211820000004801491512168994461_">
	<circle class="st0" cx="22.68" cy="289.13" r="11.34"/>
</g>
<g id="CIRCLE_00000095323483223219177050000016972533188695952011_">
	<circle class="st0" cx="306.14" cy="402.52" r="11.34"/>
</g>
<g id="CIRCLE_00000085963728415992542330000015519123757872602002_">
	<circle class="st0" cx="266.46" cy="93.54" r="19.84"/>
</g>
<g id="CIRCLE_00000167397493515277662550000006340996139888155054_">
	<circle class="st0" cx="110.55" cy="388.81" r="8.5"/>
</g>
<g id="CIRCLE_00000178926362380245173030000017987453096850662802_">
	<circle class="st0" cx="218.27" cy="303.77" r="8.5"/>
</g>
<g id="CIRCLE_00000129922028320111275150000003292827399430046137_">
	<circle class="st0" cx="164.41" cy="346.29" r="17.01"/>
</g>
<g id="LINE_00000143575787785461497240000014822761027294084793_">
	<line class="st0" x1="314.65" y1="255.12" x2="314.65" y2="113.39"/>
</g>
<g id="ARC_00000121277806693752671540000000817415812447501469_">
	<path class="st0" d="M300.47,255.12c0,3.91,3.17,7.09,7.09,7.09s7.09-3.17,7.09-7.09"/>
</g>
<g id="LINE_00000067199096128959784230000007103597019128564127_">
	<line class="st0" x1="300.47" y1="113.39" x2="300.47" y2="255.12"/>
</g>
<g id="ARC_00000076599511452645127350000010159547215877690266_">
	<path class="st0" d="M314.65,113.39c0-3.91-3.17-7.09-7.09-7.09s-7.09,3.17-7.09,7.09"/>
</g>
</svg>
