<?xml version="1.0" encoding="UTF-8"?>
<svg id="_0" data-name="0" xmlns="http://www.w3.org/2000/svg" version="1.1" viewBox="0 0 290.08 1134.53">
  <defs>
    <style>
      .cls-1 {
        fill: none;
        stroke: #000;
        stroke-linecap: round;
        stroke-linejoin: round;
        stroke-width: .71px;
      }
    </style>
  </defs>
  <g id="CIRCLE">
    <circle class="cls-1" cx="222.32" cy="747.94" r="9.92"/>
  </g>
  <g id="LINE">
    <line class="cls-1" x1="71.92" y1="208" x2="71.92" y2="236.34"/>
  </g>
  <g id="ARC">
    <path class="cls-1" d="M88.93,208c0-4.7-3.81-8.5-8.5-8.5s-8.5,3.81-8.5,8.5"/>
  </g>
  <g id="LINE-2" data-name="LINE">
    <line class="cls-1" x1="88.93" y1="236.34" x2="88.93" y2="208"/>
  </g>
  <g id="ARC-2" data-name="ARC">
    <path class="cls-1" d="M71.92,236.34c0,4.7,3.81,8.5,8.5,8.5s8.5-3.81,8.5-8.5"/>
  </g>
  <g id="CIRCLE-2" data-name="CIRCLE">
    <circle class="cls-1" cx="109.85" cy="1067.92" r="11.34"/>
  </g>
  <g id="ARC-3" data-name="ARC">
    <path class="cls-1" d="M158.67,63.45C149.28,20.24,106.65-7.19,63.43,2.19,26.62,10.19.35,42.77.35,80.44"/>
  </g>
  <g id="LINE-3" data-name="LINE">
    <line class="cls-1" x1=".35" y1="80.44" x2=".35" y2="765.68"/>
  </g>
  <g id="ARC-4" data-name="ARC">
    <path class="cls-1" d="M.35,765.68c0,2.41.17,4.82.51,7.2"/>
  </g>
  <g id="LINE-4" data-name="LINE">
    <line class="cls-1" x1=".87" y1="772.88" x2="44.26" y2="1077.27"/>
  </g>
  <g id="ARC-5" data-name="ARC">
    <path class="cls-1" d="M44.26,1077.27c4.65,32.65,32.61,56.91,65.59,56.91"/>
  </g>
  <g id="LINE-5" data-name="LINE">
    <line class="cls-1" x1="109.85" y1="1134.18" x2="233.03" y2="1134.18"/>
  </g>
  <g id="ARC-6" data-name="ARC">
    <path class="cls-1" d="M233.03,1134.18c31.31,0,56.69-25.38,56.69-56.69"/>
  </g>
  <g id="LINE-6" data-name="LINE">
    <line class="cls-1" x1="289.72" y1="1077.49" x2="289.72" y2="676.15"/>
  </g>
  <g id="ARC-7" data-name="ARC">
    <path class="cls-1" d="M289.72,676.15c0-6.07-.65-12.12-1.94-18.04"/>
  </g>
  <g id="LINE-7" data-name="LINE">
    <line class="cls-1" x1="287.78" y1="658.1" x2="158.67" y2="63.45"/>
  </g>
  <g id="ARC-8" data-name="ARC">
    <path class="cls-1" d="M201.17,638.92c-16.56,3.21-32.17,10.16-45.65,20.31"/>
  </g>
  <g id="ARC-9" data-name="ARC">
    <path class="cls-1" d="M143.58,643.37c-4.38,3.3-5.25,9.52-1.96,13.89s9.52,5.25,13.89,1.96"/>
  </g>
  <g id="ARC-10" data-name="ARC">
    <path class="cls-1" d="M197.39,619.44c-19.52,3.79-37.92,11.97-53.81,23.93"/>
  </g>
  <g id="ARC-11" data-name="ARC">
    <path class="cls-1" d="M201.17,638.92c5.38-1.04,8.89-6.25,7.85-11.63s-6.25-8.89-11.63-7.85"/>
  </g>
  <g id="LINE-8" data-name="LINE">
    <line class="cls-1" x1="124.26" y1="563.17" x2="124.26" y2="605.69"/>
  </g>
  <g id="ARC-12" data-name="ARC">
    <path class="cls-1" d="M138.44,563.17c0-3.91-3.17-7.09-7.09-7.09s-7.09,3.17-7.09,7.09"/>
  </g>
  <g id="LINE-9" data-name="LINE">
    <line class="cls-1" x1="138.44" y1="605.69" x2="138.44" y2="563.17"/>
  </g>
  <g id="ARC-13" data-name="ARC">
    <path class="cls-1" d="M124.26,605.69c0,3.91,3.17,7.09,7.09,7.09s7.09-3.17,7.09-7.09"/>
  </g>
  <g id="LINE-10" data-name="LINE">
    <line class="cls-1" x1="124.26" y1="336.4" x2="124.26" y2="378.91"/>
  </g>
  <g id="ARC-14" data-name="ARC">
    <path class="cls-1" d="M138.44,336.4c0-3.91-3.17-7.09-7.09-7.09s-7.09,3.17-7.09,7.09"/>
  </g>
  <g id="LINE-11" data-name="LINE">
    <line class="cls-1" x1="138.44" y1="378.91" x2="138.44" y2="336.4"/>
  </g>
  <g id="ARC-15" data-name="ARC">
    <path class="cls-1" d="M124.26,378.91c0,3.91,3.17,7.09,7.09,7.09s7.09-3.17,7.09-7.09"/>
  </g>
  <g id="CIRCLE-3" data-name="CIRCLE">
    <circle class="cls-1" cx="163.71" cy="1117.53" r="8.5"/>
  </g>
  <g id="LINE-12" data-name="LINE">
    <line class="cls-1" x1="246.42" y1="1073.93" x2="246.42" y2="988.89"/>
  </g>
  <g id="ARC-16" data-name="ARC">
    <path class="cls-1" d="M226.58,1073.93c0,5.48,4.44,9.92,9.92,9.92s9.92-4.44,9.92-9.92"/>
  </g>
  <g id="LINE-13" data-name="LINE">
    <line class="cls-1" x1="226.58" y1="988.89" x2="226.58" y2="1073.93"/>
  </g>
  <g id="ARC-17" data-name="ARC">
    <path class="cls-1" d="M246.42,988.89c0-5.48-4.44-9.92-9.92-9.92s-9.92,4.44-9.92,9.92"/>
  </g>
  <g id="LINE-14" data-name="LINE">
    <line class="cls-1" x1="25.35" y1="757.69" x2="42.36" y2="774.7"/>
  </g>
  <g id="ARC-18" data-name="ARC">
    <path class="cls-1" d="M43.39,739.65c-4.98-4.98-13.06-4.98-18.04,0s-4.98,13.06,0,18.04"/>
  </g>
  <g id="LINE-15" data-name="LINE">
    <line class="cls-1" x1="60.4" y1="756.66" x2="43.39" y2="739.65"/>
  </g>
  <g id="ARC-19" data-name="ARC">
    <path class="cls-1" d="M42.36,774.7c4.98,4.98,13.06,4.98,18.04,0s4.98-13.06,0-18.04"/>
  </g>
  <g id="CIRCLE-4" data-name="CIRCLE">
    <circle class="cls-1" cx="80.42" cy="80.44" r="27"/>
  </g>
  <g id="ARC-20" data-name="ARC">
    <path class="cls-1" d="M169.3,738.59c-1.09,6.19-1.09,12.51,0,18.7"/>
  </g>
  <g id="ARC-21" data-name="ARC">
    <path class="cls-1" d="M188.84,742.04c.95-5.4-2.65-10.54-8.05-11.49s-10.54,2.65-11.49,8.05"/>
  </g>
  <g id="ARC-22" data-name="ARC">
    <path class="cls-1" d="M188.84,742.04c-.69,3.91-.69,7.9,0,11.81"/>
  </g>
  <g id="ARC-23" data-name="ARC">
    <path class="cls-1" d="M169.3,757.29c.95,5.4,6.1,9,11.49,8.05s9-6.1,8.05-11.49"/>
  </g>
</svg>