<?xml version="1.0" encoding="utf-8"?>
<!-- Generator: Adobe Illustrator 27.7.0, SVG Export Plug-In . SVG Version: 6.00 Build 0)  -->
<svg version="1.1" id="_x30_" xmlns="http://www.w3.org/2000/svg" xmlns:xlink="http://www.w3.org/1999/xlink" x="0px" y="0px"
	 viewBox="0 0 639.21 425.2" style="enable-background:new 0 0 639.21 425.2;" xml:space="preserve">
<style type="text/css">
	
		.st0{fill:none;stroke:#FF0000;stroke-width:0.7087;stroke-linecap:round;stroke-linejoin:round;stroke-miterlimit:10;stroke-dasharray:3.6,1.8;}
	.st1{fill:none;stroke:#000000;stroke-width:0.7087;stroke-linecap:round;stroke-linejoin:round;stroke-miterlimit:10;}
</style>
<g id="LINE_00000059306772112439446320000010027707612986342536_">
	<line class="st0" x1="480.98" y1="323.11" x2="480.98" y2="273.08"/>
</g>
<g id="CIRCLE">
	<circle class="st1" cx="115.51" cy="73.64" r="7.09"/>
</g>
<g id="CIRCLE_00000155125733415841805900000014729198271530529959_">
	<circle class="st1" cx="523.7" cy="73.64" r="7.09"/>
</g>
<g id="CIRCLE_00000042705486122266384390000009885090868855551889_">
	<circle class="st1" cx="217.56" cy="93.54" r="19.84"/>
</g>
<g id="CIRCLE_00000145019094573881815870000016207989934366404251_">
	<circle class="st1" cx="421.65" cy="93.54" r="19.84"/>
</g>
<g id="CIRCLE_00000174603686036488117490000018133512766201102229_">
	<circle class="st1" cx="217.56" cy="348.66" r="19.84"/>
</g>
<g id="CIRCLE_00000082344588763827346270000000053042767557156287_">
	<circle class="st1" cx="265.75" cy="388.81" r="8.5"/>
</g>
<g id="CIRCLE_00000080171778351565246910000011594530987008709564_">
	<circle class="st1" cx="265.75" cy="303.77" r="8.5"/>
</g>
<g id="CIRCLE_00000176735829696171359460000006573251435719242627_">
	<circle class="st1" cx="373.46" cy="303.77" r="8.5"/>
</g>
<g id="CIRCLE_00000147918695909860645690000008383866426768879791_">
	<circle class="st1" cx="373.46" cy="388.81" r="8.5"/>
</g>
<g id="CIRCLE_00000039847244606088775270000005603223436372095384_">
	<circle class="st1" cx="319.61" cy="346.29" r="17.01"/>
</g>
<g id="ARC">
	<path class="st1" d="M115.51,307.5c3.91,0,7.09-3.17,7.09-7.09s-3.17-7.09-7.09-7.09"/>
</g>
<g id="ARC_00000090276819075810640050000017971236894326176909_">
	<path class="st1" d="M23.39,273.08c28.88,13.34,60.31,20.25,92.12,20.25"/>
</g>
<g id="ARC_00000147181852000079425710000000854668968513879940_">
	<path class="st1" d="M23.39,273.08c-3.55-1.64-7.76-0.09-9.41,3.46c-1.64,3.55-0.09,7.76,3.46,9.41"/>
</g>
<g id="ARC_00000131330925599047605310000016416322002717153415_">
	<path class="st1" d="M17.45,285.95c30.74,14.2,64.2,21.55,98.07,21.55"/>
</g>
<g id="ARC_00000070837212478901240310000009324253705927374748_">
	<path class="st1" d="M523.7,293.33c31.81,0,63.24-6.91,92.12-20.25"/>
</g>
<g id="ARC_00000115504618893570265220000004343539870029474966_">
	<path class="st1" d="M523.7,293.33c-3.91,0-7.09,3.17-7.09,7.09s3.17,7.09,7.09,7.09"/>
</g>
<g id="ARC_00000179624460398109848100000015786715608777386136_">
	<path class="st1" d="M523.7,307.5c33.86,0,67.32-7.35,98.07-21.55"/>
</g>
<g id="ARC_00000071526872873982408000000000502929558848396700_">
	<path class="st1" d="M621.76,285.95c3.55-1.64,5.1-5.85,3.46-9.41c-1.64-3.55-5.85-5.1-9.41-3.46"/>
</g>
<g id="ARC_00000067210582985887144580000002154028690680276660_">
	<path class="st1" d="M339.45,269.29h-39.69c-23.48,0-42.52-19.04-42.52-42.52v-96.38c0-23.48,19.04-42.52,42.52-42.52h34.37
		c4.7,0,8.5-3.81,8.5-8.5V58.11c0-4.7,3.81-8.5,8.5-8.5h22.32c4.7,0,8.5,3.81,8.5,8.5v168.66
		C381.97,250.25,362.93,269.29,339.45,269.29z"/>
</g>
<g id="ARC_00000149371167589244930750000011557248657475842740_">
	<path class="st1" d="M481.18,402.52v-68.09c-3.13,0-5.67-2.54-5.67-5.67c0-3.13,2.54-5.67,5.67-5.67s5.67,2.54,5.67,5.67h36.85
		c34.01,0,67.68-6.8,99.03-20c13.71-5.77,20.14-21.56,14.36-35.27c-0.41-0.98-0.88-1.93-1.41-2.86l-1.41-2.48
		c-6.74-11.85-21.26-16.8-33.83-11.52c-35.91,15.06-75.46,19.22-113.72,11.97c-0.54,2.64-2.86,4.53-5.55,4.53
		c-3.13,0-5.67-2.54-5.67-5.67c0-3.13,2.54-5.67,5.67-5.67V96.38c-3.13,0-5.67-2.54-5.67-5.67c0-3.13,2.54-5.67,5.67-5.67
		s5.67,2.54,5.67,5.67h51.02c7.83,0,14.17-6.35,14.17-14.17v-5.67c0-7.83-6.35-14.17-14.17-14.17h-51.02c0,3.13-2.54,5.67-5.67,5.67
		s-5.67-2.54-5.67-5.67c0-3.13,2.54-5.67,5.67-5.67V28.35C481.18,12.69,468.49,0,452.83,0H186.38c-15.66,0-28.35,12.69-28.35,28.35
		v22.68c3.13,0,5.67,2.54,5.67,5.67c0,3.13-2.54,5.67-5.67,5.67c-3.13,0-5.67-2.54-5.67-5.67h-51.02c-7.83,0-14.17,6.35-14.17,14.17
		v5.67c0,7.83,6.35,14.17,14.17,14.17h51.02c0-3.13,2.54-5.67,5.67-5.67c3.13,0,5.67,2.54,5.67,5.67c0,3.13-2.54,5.67-5.67,5.67
		v165.41c2.69,0,5.01,1.89,5.55,4.53c0.63,3.07-1.35,6.06-4.42,6.69c-3.07,0.63-6.06-1.35-6.69-4.42
		c-38.26,7.25-77.81,3.09-113.72-11.97c-12.57-5.27-27.09-0.32-33.83,11.52l-1.41,2.48c-7.35,12.93-2.83,29.37,10.1,36.72
		c0.92,0.52,1.88,0.99,2.86,1.41c31.35,13.2,65.02,20,99.03,20h36.85c0-3.13,2.54-5.67,5.67-5.67c3.13,0,5.67,2.54,5.67,5.67
		c0,3.13-2.54,5.67-5.67,5.67v68.09c0,12.52,10.15,22.68,22.68,22.68h277.8C471.03,425.2,481.18,415.04,481.18,402.52z"/>
</g>
<line class="st0" x1="481.18" y1="62.36" x2="481.18" y2="85.04"/>
<line class="st0" x1="158.03" y1="62.36" x2="158.03" y2="85.04"/>
<line class="st0" x1="158.03" y1="323.09" x2="158.03" y2="273.08"/>
</svg>
