<?xml version="1.0" encoding="utf-8"?>
<!-- Generator: Adobe Illustrator 27.5.0, SVG Export Plug-In . SVG Version: 6.00 Build 0)  -->
<svg version="1.1" id="_x30_" xmlns="http://www.w3.org/2000/svg" xmlns:xlink="http://www.w3.org/1999/xlink" x="0px" y="0px"
	 viewBox="0 0 328.82 425.2" style="enable-background:new 0 0 328.82 425.2;" xml:space="preserve">
<style type="text/css">
	.st0{fill:none;stroke:#000000;stroke-width:0.7087;stroke-linecap:round;stroke-linejoin:round;stroke-miterlimit:10;}
</style>
<g id="LINE_00000150788454699363089580000000956484114002112184_">
	<path class="st0" d="M15.59,227.93v-99.21c0-3.91,3.17-7.09,7.09-7.09s7.09,3.17,7.09,7.09v99.21c0,3.91-3.17,7.09-7.09,7.09
		S15.59,231.85,15.59,227.93z"/>
</g>
<g id="LINE_00000163784347940209257130000007388892139315636665_">
	<path class="st0" d="M29.76,324.11v43.44c0,3.91-3.17,7.09-7.09,7.09s-7.09-3.17-7.09-7.09v-43.44c0-3.91,3.17-7.09,7.09-7.09
		S29.76,320.19,29.76,324.11z"/>
</g>
<g id="LINE_00000031185803505514449120000005550341031145806735_">
	<path class="st0" d="M328.82,402.52V28.35C328.82,12.69,316.13,0,300.47,0L28.35,0C12.69,0,0,12.69,0,28.35l0,374.17
		c0,12.52,10.15,22.68,22.68,22.68h283.46C318.67,425.2,328.82,415.04,328.82,402.52z"/>
</g>
<g id="LINE_00000076589651379241660280000012055573014838298038_">
	<path class="st0" d="M184.25,269.29h-39.69c-23.48,0-42.52-19.04-42.52-42.52v-96.38c0-23.48,19.04-42.52,42.52-42.52h31.18
		c4.7,0,8.5-3.81,8.5-8.5V58.11c0-4.7,3.81-8.5,8.5-8.5h25.51c4.7,0,8.5,3.81,8.5,8.5v168.66
		C226.77,250.25,207.73,269.29,184.25,269.29z"/>
</g>
<g id="CIRCLE">
	<circle class="st0" cx="22.68" cy="402.52" r="11.34"/>
</g>
<g id="CIRCLE_00000147926828142512848430000012725245951466641311_">
	<circle class="st0" cx="22.68" cy="289.13" r="11.34"/>
</g>
<g id="CIRCLE_00000062179586954375510860000005877610987740959896_">
	<circle class="st0" cx="306.14" cy="289.13" r="11.34"/>
</g>
<g id="CIRCLE_00000008863135792996953060000013349907942175231644_">
	<circle class="st0" cx="306.14" cy="402.52" r="11.34"/>
</g>
<g id="CIRCLE_00000060734827445510713190000008265199548656240294_">
	<circle class="st0" cx="62.36" cy="93.54" r="19.84"/>
</g>
<g id="CIRCLE_00000008125130657337344300000002101319888158723994_">
	<circle class="st0" cx="266.46" cy="93.54" r="19.84"/>
</g>
<g id="CIRCLE_00000107573117399574485530000015178448595033314437_">
	<circle class="st0" cx="62.36" cy="348.66" r="19.84"/>
</g>
<g id="CIRCLE_00000016067084051064664520000009724586665786954167_">
	<circle class="st0" cx="22.68" cy="22.68" r="11.34"/>
</g>
<g id="CIRCLE_00000098931561818052381130000000018973045554004873_">
	<circle class="st0" cx="306.14" cy="23.14" r="11.34"/>
</g>
<g id="CIRCLE_00000164472968961663750540000011067202777061888694_">
	<circle class="st0" cx="110.55" cy="388.81" r="8.5"/>
</g>
<g id="CIRCLE_00000039135507777416357890000013952378434170797198_">
	<circle class="st0" cx="110.55" cy="303.77" r="8.5"/>
</g>
<g id="CIRCLE_00000126305629956539812480000002366813448360042668_">
	<circle class="st0" cx="218.27" cy="303.77" r="8.5"/>
</g>
<g id="CIRCLE_00000050633106850504866140000015185138486928589200_">
	<circle class="st0" cx="218.27" cy="388.81" r="8.5"/>
</g>
<g id="CIRCLE_00000092457670859371019030000007140259801056201911_">
	<circle class="st0" cx="164.41" cy="346.29" r="17.01"/>
</g>
<g id="LINE_00000096743509667091384460000013724360282289460880_">
	<path class="st0" d="M299.06,367.55v-42.52c0-3.91,3.17-7.09,7.09-7.09c3.91,0,7.09,3.17,7.09,7.09v42.52
		c0,3.91-3.17,7.09-7.09,7.09C302.23,374.63,299.06,371.46,299.06,367.55z"/>
</g>
<g id="LINE_00000009581441729559947840000001819396954355669161_">
	<path class="st0" d="M299.06,227.93v-99.21c0-3.91,3.17-7.09,7.09-7.09c3.91,0,7.09,3.17,7.09,7.09v99.21
		c0,3.91-3.17,7.09-7.09,7.09C302.23,235.02,299.06,231.85,299.06,227.93z"/>
</g>
</svg>
