<?xml version="1.0" encoding="utf-8"?>
<!-- Generator: Adobe Illustrator 27.5.0, SVG Export Plug-In . SVG Version: 6.00 Build 0)  -->
<svg version="1.1" id="_x30_" xmlns="http://www.w3.org/2000/svg" xmlns:xlink="http://www.w3.org/1999/xlink" x="0px" y="0px"
	 viewBox="0 0 329.18 425.2" style="enable-background:new 0 0 329.18 425.2;" xml:space="preserve">
<style type="text/css">
	.st0{fill:none;stroke:#000000;stroke-width:0.7087;stroke-linecap:round;stroke-linejoin:round;stroke-miterlimit:10;}
</style>
<g id="CIRCLE">
	<circle class="st0" cx="164.77" cy="346.29" r="17.01"/>
</g>
<g id="CIRCLE_00000118382222286292741520000006854827321673788300_">
	<circle class="st0" cx="218.63" cy="388.81" r="8.5"/>
</g>
<g id="CIRCLE_00000062886814976875931730000006396860226569012356_">
	<circle class="st0" cx="218.63" cy="303.77" r="8.5"/>
</g>
<g id="CIRCLE_00000060025753978279478240000016256399944089340045_">
	<circle class="st0" cx="110.91" cy="303.77" r="8.5"/>
</g>
<g id="CIRCLE_00000126289630228333555960000011740892642521619110_">
	<circle class="st0" cx="110.91" cy="388.81" r="8.5"/>
</g>
<g id="ARC">
	<path class="st0" d="M14.53,255.12c0,3.91,3.17,7.09,7.09,7.09s7.09-3.17,7.09-7.09"/>
</g>
<g id="LINE">
	<line class="st0" x1="28.7" y1="113.39" x2="28.7" y2="255.12"/>
</g>
<g id="ARC_00000123409270084879151130000011037282286855390374_">
	<path class="st0" d="M28.7,113.39c0-3.91-3.17-7.09-7.09-7.09s-7.09,3.17-7.09,7.09"/>
</g>
<g id="LINE_00000119082340663063408900000007226444932522900669_">
	<line class="st0" x1="14.53" y1="255.12" x2="14.53" y2="113.39"/>
</g>
<g id="ARC_00000165925010581438490280000012622417085229648062_">
	<path class="st0" d="M0.36,402.52c0,12.52,10.15,22.68,22.68,22.68"/>
</g>
<g id="LINE_00000165223663771687438660000011255749263218793111_">
	<line class="st0" x1="0.36" y1="402.52" x2="0.36" y2="28.35"/>
</g>
<g id="ARC_00000123430056186318669290000002329791412552789395_">
	<path class="st0" d="M28.7,0C13.05,0,0.36,12.69,0.36,28.35"/>
</g>
<g id="LINE_00000003069343237117118470000006018170615018515075_">
	<line class="st0" x1="28.7" y1="0" x2="300.83" y2="0"/>
</g>
<g id="ARC_00000151519551267892015950000013262461921751868818_">
	<path class="st0" d="M329.18,28.35C329.18,12.69,316.49,0,300.83,0"/>
</g>
<g id="LINE_00000135656854584404710390000013436615183329988992_">
	<line class="st0" x1="329.18" y1="28.35" x2="329.18" y2="402.52"/>
</g>
<g id="ARC_00000148620169110536614720000013524522915832540820_">
	<path class="st0" d="M306.5,425.2c12.52,0,22.68-10.15,22.68-22.68"/>
</g>
<g id="LINE_00000053513358249579765660000005407043515331659916_">
	<line class="st0" x1="306.5" y1="425.2" x2="23.04" y2="425.2"/>
</g>
<g id="ARC_00000005954960462993435280000018143708282962624661_">
	<path class="st0" d="M227.13,58.11c0-4.7-3.81-8.5-8.5-8.5"/>
</g>
<g id="LINE_00000114766282911708154220000013652384894794341516_">
	<line class="st0" x1="193.11" y1="49.61" x2="218.63" y2="49.61"/>
</g>
<g id="ARC_00000101817758201917407480000012037720144708932031_">
	<path class="st0" d="M193.11,49.61c-4.7,0-8.5,3.81-8.5,8.5"/>
</g>
<g id="LINE_00000090274319083708500020000018397288016667789442_">
	<line class="st0" x1="184.61" y1="79.37" x2="184.61" y2="58.11"/>
</g>
<g id="ARC_00000181792053383262818050000006318086047117456829_">
	<path class="st0" d="M176.11,87.87c4.7,0,8.5-3.81,8.5-8.5"/>
</g>
<g id="LINE_00000066493530536390740410000001209216368787946373_">
	<line class="st0" x1="144.93" y1="87.87" x2="176.11" y2="87.87"/>
</g>
<g id="ARC_00000108991916550670031190000007913147753413179569_">
	<path class="st0" d="M144.93,87.87c-23.48,0-42.52,19.04-42.52,42.52"/>
</g>
<g id="LINE_00000168094297768408257430000001782286428993551755_">
	<line class="st0" x1="102.41" y1="226.77" x2="102.41" y2="130.39"/>
</g>
<g id="ARC_00000008141438364631453650000011823540113182995885_">
	<path class="st0" d="M102.41,226.77c0,23.48,19.04,42.52,42.52,42.52"/>
</g>
<g id="LINE_00000024682482873746004750000002849948129346171537_">
	<line class="st0" x1="184.61" y1="269.29" x2="144.93" y2="269.29"/>
</g>
<g id="ARC_00000139291607828896924620000011627641454576394409_">
	<path class="st0" d="M184.61,269.29c23.48,0,42.52-19.04,42.52-42.52"/>
</g>
<g id="LINE_00000065771908050121279690000005265507640197355652_">
	<line class="st0" x1="227.13" y1="58.11" x2="227.13" y2="226.77"/>
</g>
<g id="CIRCLE_00000053513964485566291890000011509388850851331995_">
	<circle class="st0" cx="23.04" cy="402.52" r="11.34"/>
</g>
<g id="CIRCLE_00000043416998553741152140000014310498082679037319_">
	<circle class="st0" cx="23.04" cy="289.13" r="11.34"/>
</g>
<g id="CIRCLE_00000124161688419261765660000010358580393628299649_">
	<circle class="st0" cx="306.5" cy="289.13" r="11.34"/>
</g>
<g id="CIRCLE_00000129887226674714199640000017649705621708938379_">
	<circle class="st0" cx="306.5" cy="402.52" r="11.34"/>
</g>
<g id="CIRCLE_00000109015158217776063100000006998639919094117276_">
	<circle class="st0" cx="62.72" cy="93.54" r="19.84"/>
</g>
<g id="CIRCLE_00000004532949017050074230000012140624856296837523_">
	<circle class="st0" cx="266.81" cy="93.54" r="19.84"/>
</g>
<g id="CIRCLE_00000134945050578521644190000016066491585479748515_">
	<circle class="st0" cx="62.72" cy="348.66" r="19.84"/>
</g>
<g id="ARC_00000116213633070562247580000008200032609089049250_">
	<path class="st0" d="M300.83,255.12c0,3.91,3.17,7.09,7.09,7.09c3.91,0,7.09-3.17,7.09-7.09"/>
</g>
<g id="LINE_00000109032112491368285870000003968804899782079159_">
	<line class="st0" x1="315" y1="113.39" x2="315" y2="255.12"/>
</g>
<g id="ARC_00000023959175598594208050000014191384276280790719_">
	<path class="st0" d="M315,113.39c0-3.91-3.17-7.09-7.09-7.09c-3.91,0-7.09,3.17-7.09,7.09"/>
</g>
<g id="LINE_00000082358310563024776900000010341602372268266430_">
	<line class="st0" x1="300.83" y1="255.12" x2="300.83" y2="113.39"/>
</g>
</svg>
